<svg xmlns="http://www.w3.org/2000/svg" id="Vrstva_1" data-name="Vrstva 1" width="1240.1856" height="335.3719" viewBox="0 0 1240.1856 335.3719"><path d="M128.72,273.047a3.9845,3.9845,0,1,1,4.484,3.415,3.0868,3.0868,0,0,1-.544.046,3.9977,3.9977,0,0,1-3.94-3.461m19.24,1.133a3.9855,3.9855,0,1,1,1.115.16,3.8353,3.8353,0,0,1-1.115-.16m12.698-6.589a3.953,3.953,0,1,1,1.961.527,3.9842,3.9842,0,0,1-1.961-.527m-45.369-.846a3.9961,3.9961,0,1,1,2.489.862,3.9277,3.9277,0,0,1-2.489-.862m186.085-4.513a3.9837,3.9837,0,0,1,.781-7.929H302.14a3.9813,3.9813,0,0,1-.3661,7.945,3.3277,3.3277,0,0,1-.399-.016m-53.282-7.387a3.9909,3.9909,0,1,1,4.42,3.494,4.5179,4.5179,0,0,1-.463.031,3.9951,3.9951,0,0,1-3.957-3.525m35.3361,2.521a3.9713,3.9713,0,1,1,1.4339.271,3.8158,3.8158,0,0,1-1.4339-.271M171.84,254.909a3.989,3.989,0,1,1,5.599.687,4.0572,4.0572,0,0,1-2.457.844,3.9792,3.9792,0,0,1-3.142-1.531m93.386-3.748a3.9847,3.9847,0,1,1,5.2,2.17,3.8984,3.8984,0,0,1-1.516.302,3.9646,3.9646,0,0,1-3.684-2.472m46.709-1.133a3.9878,3.9878,0,1,1,5.63-.447v.016a4.0413,4.0413,0,0,1-3.03,1.388,3.9951,3.9951,0,0,1-2.6-.957m13.8941-8.503a3.9881,3.9881,0,1,1,4.0349,3.957h-.031a4.0068,4.0068,0,0,1-4.0039-3.957m17.5949-.447a3.9871,3.9871,0,1,1,5.201,2.219,4.0934,4.0934,0,0,1-1.484.286,3.9979,3.9979,0,0,1-3.717-2.505m-251.075.527h0a3.9859,3.9859,0,1,1,5.44-1.499,3.975,3.975,0,0,1-5.44,1.499m128.736-.159a3.97,3.97,0,1,1,1.931.509,3.8957,3.8957,0,0,1-1.931-.509m-48.399-5.057h0a3.9923,3.9923,0,1,1,4.29,3.653,2.131,2.131,0,0,1-.319.016,3.992,3.992,0,0,1-3.971-3.669m32.685,2.217a3.9973,3.9973,0,1,1,.719.064,3.6483,3.6483,0,0,1-.719-.064m152.266-7.322a3.993,3.993,0,1,1,5.553-.941,3.9273,3.9273,0,0,1-3.239,1.675,3.99,3.99,0,0,1-2.314-.734m-279.995-.861a4.01,4.01,0,1,1,2.743,1.084,3.9361,3.9361,0,0,1-2.743-1.084m291.785-11.359a3.9725,3.9725,0,1,1,3.398,1.882,4.0006,4.0006,0,0,1-3.398-1.882m3.7-17.1h0a3.99,3.99,0,1,1,7.928-.91v.016a3.992,3.992,0,0,1-3.525,4.404c-.144.015-.303.031-.446.031a3.9865,3.9865,0,0,1-3.957-3.541m-318.314.813h0a3.9853,3.9853,0,1,1,6.524-4.579h.017a3.9924,3.9924,0,0,1-.989,5.553,4.0033,4.0033,0,0,1-5.552-.974m-14.4369-5.903h0a3.9673,3.9673,0,1,1,1.8989.496,3.9224,3.9224,0,0,1-1.8989-.496m342.2909-4.96a3.9861,3.9861,0,0,1,2.792-4.898v.016a3.986,3.986,0,0,1,2.105,7.689,4.1026,4.1026,0,0,1-1.052.144,3.981,3.981,0,0,1-3.845-2.951M26.4025,183.57v.016a3.9873,3.9873,0,0,1,6.7319-4.275h.015a3.9894,3.9894,0,1,1-6.7469,4.259m368.948-2.234a3.9882,3.9882,0,1,1,5.4379-1.514h-.015a3.9424,3.9424,0,0,1-5.4229,1.514m14.3569-6.174a3.9882,3.9882,0,1,1,5.438-1.514h-.015a3.9425,3.9425,0,0,1-5.423,1.514m4.7861-14.357a3.9882,3.9882,0,1,1,5.4379-1.514h-.015a3.9424,3.9424,0,0,1-5.4229,1.514M17.6284,168.239h0a3.9924,3.9924,0,1,1,3.446,1.979,4.0045,4.0045,0,0,1-3.446-1.979m3.781-14.34a4.0251,4.0251,0,1,1,1.77.399,4.0937,4.0937,0,0,1-1.77-.399m380.736-2.329a3.9927,3.9927,0,1,1,4.801-6.381h-.015a3.9882,3.9882,0,1,1-4.786,6.381M17.7085,138.282a4.0065,4.0065,0,1,1,2.823,1.164,4.002,4.002,0,0,1-2.823-1.164m374.2269-2.521a3.9936,3.9936,0,1,1,5.297,1.962,4.0941,4.0941,0,0,1-1.659.367,4.0189,4.0189,0,0,1-3.638-2.329m-12.9209.67a4.0606,4.0606,0,1,1,.5579.031c-.175,0-.366-.015-.5579-.031m-16.3351-4.722h0a3.99,3.99,0,0,1,.222-7.976h-.015a3.9886,3.9886,0,0,1-.095,7.976Zm-18.394-2.888a3.9845,3.9845,0,1,1,5.632.224,4.0111,4.0111,0,0,1-2.7129,1.053,3.969,3.969,0,0,1-2.9191-1.277M5.0584,125.983a3.9938,3.9938,0,1,1,5.647.063,3.9536,3.9536,0,0,1-2.776,1.133,3.9942,3.9942,0,0,1-2.871-1.196m263.66-3.415a3.9841,3.9841,0,1,1,5.584.751,3.9929,3.9929,0,0,1-5.584-.751m15.858-5.456a3.9945,3.9945,0,0,1-.5749-5.614h.0169a3.9971,3.9971,0,1,1,.558,5.614m48.256-2.408h0a3.9822,3.9822,0,1,1,3.302,1.754,3.9823,3.9823,0,0,1-3.302-1.754M1.3084,109.997a3.9811,3.9811,0,1,1,2.681,1.038,3.9373,3.9373,0,0,1-2.681-1.038m13.8481.192a3.9777,3.9777,0,0,1-1.0221-5.551h-.015a3.9913,3.9913,0,1,1,3.285,6.254,3.9081,3.9081,0,0,1-2.2479-.703m280.0749-3.653h0a3.9875,3.9875,0,1,1,4.387,3.541,3.6279,3.6279,0,0,1-.43.017,3.9774,3.9774,0,0,1-3.957-3.558m-34.617.542a3.9991,3.9991,0,1,1,3.208,1.612,3.9948,3.9948,0,0,1-3.208-1.612m64.497-4.004a3.9863,3.9863,0,1,1,4.5461,3.334,3.9048,3.9048,0,0,1-.6061.049,3.9912,3.9912,0,0,1-3.94-3.383m-14.198-1.961v-.017a3.982,3.982,0,1,1,5.647.097,3.9371,3.9371,0,0,1-2.776,1.116,3.9933,3.9933,0,0,1-2.871-1.196M26.96,97.315a3.9917,3.9917,0,1,1,4.9461,2.728,3.8262,3.8262,0,0,1-1.1011.16,4.02,4.02,0,0,1-3.845-2.888m222.584-3.19h0a3.9693,3.9693,0,1,1,2.8711,1.229,3.9884,3.9884,0,0,1-2.8711-1.229m45.465-3.797a3.9848,3.9848,0,1,1,4.371,3.558,3.599,3.599,0,0,1-.416.016,3.9751,3.9751,0,0,1-3.955-3.574M60.0774,88.861a3.9911,3.9911,0,1,1,5.583.782,4.0035,4.0035,0,0,1-5.583-.782m191.19-7.849a3.9873,3.9873,0,1,1,2.823,1.181,3.9233,3.9233,0,0,1-2.823-1.181M74.37,78.652a3.987,3.987,0,1,1,5.488,1.291,4.047,4.047,0,0,1-2.106.591,3.9827,3.9827,0,0,1-3.382-1.882m152.314-4.435a3.9892,3.9892,0,1,1,2.457.846,3.9858,3.9858,0,0,1-2.457-.846m-120.185-9.843a3.9889,3.9889,0,1,1,5.632.144,3.9459,3.9459,0,0,1-2.745,1.084,4,4,0,0,1-2.887-1.228m106.738.128a3.9934,3.9934,0,1,1,1.706.382,4.087,4.087,0,0,1-1.706-.382m-94.375-10.561a3.986,3.986,0,1,1,4.594,3.27,3.0956,3.0956,0,0,1-.669.064,3.9857,3.9857,0,0,1-3.925-3.334m39.754-.702a3.9884,3.9884,0,1,1,5.312,1.866,3.8975,3.8975,0,0,1-1.723.399,3.9669,3.9669,0,0,1-3.589-2.265m-11.837-6.046a3.9857,3.9857,0,1,1,5.615.59,4.0848,4.0848,0,0,1-2.521.894,3.96,3.96,0,0,1-3.094-1.484m-16.558-2.728a3.99,3.99,0,1,1,4.8491,2.888,4.1945,4.1945,0,0,1-.9891.128,3.9966,3.9966,0,0,1-3.86-3.016m56.853.639h0a4.0108,4.0108,0,1,1,3.319,1.754,3.983,3.983,0,0,1-3.319-1.754m-13.112-.287a3.9885,3.9885,0,1,1,5.359-1.723h.017a4.0181,4.0181,0,0,1-3.558,2.169,3.9338,3.9338,0,0,1-1.818-.446" fill="#e5403a"></path><path d="M61.1141,279.2153a20.6729,20.6729,0,0,1-12.167-37.396l102.037-74.128L48.9471,93.5493a20.6723,20.6723,0,0,1,24.305-33.446l125.046,90.866a20.6709,20.6709,0,0,1,0,33.445l-125.046,90.851a20.6051,20.6051,0,0,1-12.138,3.95" fill="#001676"></path><path d="M233.9166,335.3719a20.6767,20.6767,0,0,1-19.6491-14.2859l-28.732-88.415a20.668,20.668,0,0,1,39.313-12.7731l28.732,88.4151a20.7072,20.7072,0,0,1-19.6639,27.0589" fill="#e5403a"></path><path d="M340.73,188.3529h-92.956a20.6655,20.6655,0,1,1,0-41.331H340.73a20.6655,20.6655,0,1,1,0,41.331" fill="#e5403a"></path><path d="M205.2,129.7556a20.9581,20.9581,0,0,1-6.386-1.009,20.6671,20.6671,0,0,1-13.278-26.05l28.732-88.415a20.668,20.668,0,0,1,39.313,12.773l-28.732,88.415a20.6767,20.6767,0,0,1-19.649,14.286" fill="#e5403a"></path><path d="M474.19,145.9616h-13.516c-.866,0-1.294-.448-1.294-1.3449l.677-37.922-.677-37.917c0-.8971.428-1.35,1.294-1.35H479.18a1.6855,1.6855,0,0,1,1.574.901l31.473,55.5871-.677-23.67V68.7777a1.1918,1.1918,0,0,1,1.344-1.35H526.42c.817,0,1.225.453,1.225,1.35l-.608,37.917.608,37.922q0,1.3453-1.225,1.3449h-19.193a1.75,1.75,0,0,1-1.564-.896l-30.905-55.1439.777,26.982v27.713a1.1889,1.1889,0,0,1-1.345,1.3449" fill="#001676"></path><path d="M585.3731,68.4937l25.796,75.954c.339,1.011-.01,1.514-1.066,1.514h-14.8a1.5807,1.5807,0,0,1-1.574-1.066l-6.006-18.904h-29.501l-5.727,18.85a1.4358,1.4358,0,0,1-1.514,1.12H536.29c-1.046,0-1.404-.503-1.065-1.514l26.413-75.954a1.4649,1.4649,0,0,1,1.464-1.066h20.807a1.4649,1.4649,0,0,1,1.464,1.066m5.438-13.571-27.49,7.012a1.2361,1.2361,0,0,1-1.623-.901l-1.962-5.608a1.2946,1.2946,0,0,1,.837-1.738l26.314-11.165q1.344-.5595,1.733.732l3.087,9.985a1.1419,1.1419,0,0,1-.896,1.683m-18.177,23.949-10.259,33.545h21.036Z" fill="#001676"></path><path d="M665.1916,114.9965l19.014,29.396a1.1167,1.1167,0,0,1,.219,1.1211c-.15.299-.498.448-1.066.448h-16.882a1.727,1.727,0,0,1-1.624-.896l-9.989-16.603-7.679-11.6691H635.85l.508,27.823c0,.8971-.428,1.3451-1.295,1.3451h-15.029c-.867,0-1.295-.448-1.295-1.3451l.677-37.922-.677-37.9169c0-.897.428-1.35,1.295-1.35h31.692q14.7465,0,22.858,6.2,8.1135,6.2,8.108,18.486,0,8.694-4.572,14.526a25.0825,25.0825,0,0,1-12.928,8.3569m-29.063-35.114-.448,24.4571h17.171a16.0641,16.0641,0,0,0,9.362-2.7491q3.9885-2.75,3.984-9.1439,0-6.3932-3.615-9.4761-3.6165-3.0855-10.179-3.088Z" fill="#001676"></path><path d="M729.8012,147.6447q-11.9955,0-20.896-5.1889a35.8623,35.8623,0,0,1-13.7939-14.362,44.1289,44.1289,0,0,1-4.91-21.1751q0-12.504,4.88-21.7619a34.9057,34.9057,0,0,1,13.775-14.333q8.8891-5.079,20.945-5.079a41.9955,41.9955,0,0,1,20.896,5.0249,34.7354,34.7354,0,0,1,13.885,14.2471q4.929,9.225,4.94,21.9019a44.0361,44.0361,0,0,1-4.94,21.1751,36.01,36.01,0,0,1-13.855,14.362q-8.9189,5.1915-20.926,5.1889m.12-13.127q10.5928,0,16.294-7.375,5.6925-7.3739,5.6879-20.224,0-12.9-5.6679-20.4729-5.6612-7.5735-16.4341-7.5741-10.7713,0-16.3739,7.46-5.6175,7.4624-5.6071,20.5869,0,12.789,5.7471,20.1941,5.751,7.41,16.354,7.4049" fill="#001676"></path><path d="M808.7837,145.9621h-27.768c-.867,0-1.2949-.449-1.2949-1.345l.8469-37.922-.8469-37.918c0-.896.4279-1.349,1.2949-1.349h27.539a53.7016,53.7016,0,0,1,15.986,2.33,37.8692,37.8692,0,0,1,13.296,7.181,33.1244,33.1244,0,0,1,9.064,12.396,44.8325,44.8325,0,0,1,3.277,17.922q0,10.4355-3.307,17.809a31.4767,31.4767,0,0,1-9.0929,11.977,37.8115,37.8115,0,0,1-13.2371,6.757,56.2023,56.2023,0,0,1-15.757,2.162m-12.1209-39.601.6768,26.922h12.3411a26.2453,26.2453,0,0,0,8.914-1.484,19.5911,19.5911,0,0,0,7.29-4.602,21.0063,21.0063,0,0,0,4.911-8.102,35.7543,35.7543,0,0,0,1.773-11.952q0-9.3075-3.0879-15.284a20.4855,20.4855,0,0,0-8.3561-8.864,24.3306,24.3306,0,0,0-11.893-2.888H797.34Z" fill="#001676"></path><path d="M875.1968,145.9616H861.6807c-.866,0-1.2939-.448-1.2939-1.3449l.677-37.922-.677-37.917c0-.8971.4279-1.35,1.2939-1.35h18.5061a1.6856,1.6856,0,0,1,1.574.901l31.473,55.5871-.677-23.67V68.7777a1.1918,1.1918,0,0,1,1.344-1.35h13.526c.817,0,1.225.453,1.225,1.35l-.6081,37.917.6081,37.922q0,1.3453-1.225,1.3449h-19.193a1.75,1.75,0,0,1-1.5641-.896L875.7648,89.9217l.776,26.982v27.713a1.1882,1.1882,0,0,1-1.344,1.3449" fill="#001676"></path><path d="M967.6949,54.9226l-27.48,7.0121a1.2459,1.2459,0,0,1-1.633-.901l-1.962-5.608a1.2927,1.2927,0,0,1,.8461-1.738l26.3049-11.165c.896-.373,1.474-.1291,1.7421.732l3.078,9.985a1.1421,1.1421,0,0,1-.896,1.6829m-9.761,91.039h-14.92q-1.2838,0-1.285-1.3449l.837-37.922-.837-37.917c0-.8971.4291-1.35,1.285-1.35h14.92c.8269,0,1.235.453,1.235,1.35l-.7271,37.917.7271,37.922c0,.8969-.4081,1.3449-1.235,1.3449" fill="#001676"></path><path d="M490.1255,189.8151q14.238,0,22.042,6.34,7.7985,6.342,7.798,18.904,0,12.3405-7.938,19.182-7.932,6.8505-22.021,6.848h-13.516l.508,25.916c0,.896-.418,1.344-1.235,1.344h-15.089c-.867,0-1.295-.448-1.295-1.344l.737-37.923-.737-37.917c0-.897.428-1.35,1.295-1.35Zm1.116,38.819a12.846,12.846,0,0,0,8.615-3.083q3.6164-3.084,3.616-10.154,0-6.73-3.307-9.93-3.3165-3.1965-9.3721-3.197H476.83l-.448,26.364Z" fill="#001676"></path><path d="M578.859,268.3493H531.071c-.8661,0-1.295-.448-1.295-1.345l.847-37.922-.847-37.917c0-.897.4289-1.35,1.295-1.35h15.03c.8261,0,1.2351.453,1.2351,1.35l-.6181,36.906.6781,27.599h31.463c.8669,0,1.295.448,1.295,1.35v9.984c0,.897-.4281,1.345-1.295,1.345" fill="#001676"></path><path d="M635.6807,190.8813l25.796,75.954c.339,1.011-.01,1.5139-1.066,1.5139h-14.8a1.5818,1.5818,0,0,1-1.5739-1.0659l-6.006-18.904H608.53l-5.7269,18.85a1.4357,1.4357,0,0,1-1.514,1.12H586.5976c-1.0459,0-1.4039-.5029-1.0659-1.5139l26.414-75.954a1.4649,1.4649,0,0,1,1.464-1.066h20.807a1.465,1.465,0,0,1,1.464,1.066m5.4379-13.571-27.49,7.012a1.236,1.236,0,0,1-1.6229-.901l-1.962-5.608a1.2944,1.2944,0,0,1,.836-1.738l26.315-11.1651q1.344-.5594,1.733.7321l3.087,9.985a1.1419,1.1419,0,0,1-.8961,1.683m-18.1769,23.9489-10.259,33.5451h21.036Z" fill="#001676"></path><path d="M683.8665,268.3493h-13.516c-.866,0-1.2941-.448-1.2941-1.345l.677-37.922-.677-37.917c0-.897.4281-1.35,1.2941-1.35h18.506a1.6855,1.6855,0,0,1,1.574.901l31.473,55.587-.677-23.67v-31.468a1.1918,1.1918,0,0,1,1.344-1.35h13.526c.817,0,1.225.453,1.225,1.35l-.6081,37.917.6081,37.922q0,1.3455-1.225,1.345h-19.193a1.75,1.75,0,0,1-1.5641-.896l-30.9049-55.144.777,26.982v27.713a1.189,1.189,0,0,1-1.345,1.345" fill="#001676"></path><path d="M810.9745,270.0324q-11.9953,0-20.8949-5.189a35.8583,35.8583,0,0,1-13.795-14.362,44.1288,44.1288,0,0,1-4.91-21.175q0-12.504,4.88-21.762a34.9057,34.9057,0,0,1,13.775-14.333q8.889-5.079,20.9449-5.079a42.0042,42.0042,0,0,1,20.896,5.024,34.7424,34.7424,0,0,1,13.885,14.248q4.9292,9.225,4.94,21.902a44.0349,44.0349,0,0,1-4.94,21.175,36.01,36.01,0,0,1-13.8549,14.362q-8.919,5.1915-20.9261,5.189m.12-13.127q10.5927,0,16.2939-7.375,5.6925-7.374,5.688-20.224,0-12.9-5.668-20.473-5.661-7.5735-16.4341-7.574-10.7714,0-16.3739,7.46-5.6175,7.4625-5.607,20.587,0,12.789,5.747,20.194,5.751,7.41,16.3541,7.405" fill="#001676"></path><path d="M896.3621,268.3492H862.199c-.8669,0-1.2949-.448-1.2949-1.344l.787-37.923-.787-37.917c0-.897.428-1.35,1.2949-1.35h33.5951a46.98,46.98,0,0,1,14.3319,2.022,21.1306,21.1306,0,0,1,9.96,6.31q3.6448,4.2945,3.6449,11.08,0,7.0665-3.5349,11.245a20.4345,20.4345,0,0,1-10.04,6.145q7.9185,1.7325,11.812,6.589a17.5918,17.5918,0,0,1,3.895,11.359,22.364,22.364,0,0,1-2.47,10.911,20.9861,20.9861,0,0,1-6.644,7.375,28.9774,28.9774,0,0,1-9.4511,4.178,44.78,44.78,0,0,1-10.9359,1.32m-17.8391-66.642-.6769,19.746H896.023q4.99,0,7.828-2.495,2.8247-2.4945,2.8291-7.266,0-5.214-3.1371-7.599a12.1,12.1,0,0,0-7.52-2.386Zm-.6769,31.638.6769,23.112h17.5a15.367,15.367,0,0,0,8.9441-2.495q3.6149-2.4945,3.625-9.397a11.4531,11.4531,0,0,0-1.713-6.619,9.5035,9.5035,0,0,0-4.5711-3.535,17.9841,17.9841,0,0,0-6.285-1.066Z" fill="#001676"></path><path d="M950.1452,268.3493H936.6291c-.866,0-1.294-.448-1.294-1.345l.677-37.922-.677-37.917c0-.897.428-1.35,1.294-1.35h18.5061a1.6855,1.6855,0,0,1,1.574.901l31.473,55.587-.677-23.67v-31.468a1.1918,1.1918,0,0,1,1.344-1.35h13.526c.817,0,1.2249.453,1.2249,1.35l-.608,37.917.608,37.922q0,1.3455-1.2249,1.345h-19.193a1.75,1.75,0,0,1-1.5641-.896l-30.9049-55.144.777,26.982v27.713a1.189,1.189,0,0,1-1.345,1.345" fill="#001676"></path><path d="M1053.4689,270.0324q-11.9954,0-20.8949-5.189a35.8577,35.8577,0,0,1-13.795-14.362,44.1288,44.1288,0,0,1-4.91-21.175q0-12.504,4.88-21.762a34.9059,34.9059,0,0,1,13.7751-14.333q8.889-5.079,20.9449-5.079a42.0045,42.0045,0,0,1,20.896,5.024,34.7431,34.7431,0,0,1,13.885,14.248q4.929,9.225,4.94,21.902a44.036,44.036,0,0,1-4.94,21.175,36.01,36.01,0,0,1-13.855,14.362q-8.9188,5.1915-20.926,5.189m.12-13.127q10.5929,0,16.294-7.375,5.6925-7.374,5.688-20.224,0-12.9-5.668-20.473-5.661-7.5735-16.4341-7.574-10.7714,0-16.3739,7.46-5.6175,7.4625-5.607,20.587,0,12.789,5.747,20.194,5.751,7.41,16.354,7.405" fill="#001676"></path><path d="M1119.4839,267.2836l-24.96-75.949c-.3381-1.011.02-1.519,1.066-1.519h16.265a1.35,1.35,0,0,1,1.454,1.125l18.744,64.451,18.2269-64.451a1.4039,1.4039,0,0,1,1.4541-1.125h14.084c1.085,0,1.454.508,1.125,1.519l-24.4021,75.949a1.434,1.434,0,0,1-1.5139,1.066h-20.029a1.4858,1.4858,0,0,1-1.514-1.066" fill="#001676"></path><path d="M1197.3407,241.7613l-26.195-50.372c-.518-1.046-.199-1.574.956-1.574h16.4939a1.6048,1.6048,0,0,1,1.5741,1.011l16.0349,36.125,16.1551-36.125a1.5959,1.5959,0,0,1,1.5739-1.011h15.0291c1.196,0,1.514.528.957,1.574l-26.255,50.372.6179,25.243c0,.897-.4089,1.345-1.2349,1.345h-15.09a1.1322,1.1322,0,0,1-1.2841-1.345Z" fill="#001676"></path></svg>